<svg width="400" height="500" viewBox="0 0 400 500" fill="none" xmlns="http://www.w3.org/2000/svg">
<path fill-rule="evenodd" clip-rule="evenodd" d="M39.9996 499.501H43.9996V482.001H58.3329V478.001H43.9996V464.501H59.9996V460.501H39.9996V499.501Z" fill="#241264"/>
<path fill-rule="evenodd" clip-rule="evenodd" d="M88.6662 470.367L95.7855 486.001H84.8209L82.9995 490.001H97.6069L101.933 499.501H106.333L88.6662 460.501V470.367Z" fill="#241264"/>
<path fill-rule="evenodd" clip-rule="evenodd" d="M125.666 495.501H141.666V499.501H121.666V460.501H125.666V495.501Z" fill="#241264"/>
<path fill-rule="evenodd" clip-rule="evenodd" d="M185.589 491.27L188.46 494.143C184.855 497.764 179.886 500.001 174.425 500.001C163.392 500.001 154.333 491.039 154.333 479.95C154.333 469.013 163.341 460.001 174.425 460.001C179.936 460.001 184.884 462.254 188.466 465.852L185.604 468.715C182.742 465.834 178.803 464.001 174.428 464.001C165.491 464.001 158.331 471.474 158.331 479.95C158.331 488.477 165.491 496.001 174.428 496.001C178.796 496.001 182.729 494.161 185.589 491.27Z" fill="#241264"/>
<path fill-rule="evenodd" clip-rule="evenodd" d="M263.333 499.501H259.333V460.501L286.333 489.446V460.501H290.333V499.501L263.333 470.556V499.501Z" fill="#241264"/>
<path d="M312 460.5H308V499.5H312V460.5Z" fill="#241264"/>
<path d="M334 460.5H330V499.5H334V460.5Z" fill="#241264"/>
<path fill-rule="evenodd" clip-rule="evenodd" d="M360 499.501L340.666 480.001L360 460.501H354.333L335 480.001L354.333 499.501H360Z" fill="#241264"/>
<path fill-rule="evenodd" clip-rule="evenodd" d="M224.101 500.001C235.038 500.001 244 491.039 244 479.95C244 469.115 235.19 460.001 224.101 460.001C213.012 460.001 204 469.013 204 479.95C204 491.039 213.063 500.001 224.101 500.001ZM224.104 464.001C232.941 464.001 240 471.474 240 479.95C240 488.477 232.941 496.001 224.104 496.001C215.163 496.001 208 488.477 208 479.95C208 471.474 215.163 464.001 224.104 464.001Z" fill="#241264"/>
<mask id="mask0_1_1176" style="mask-type:luminance" maskUnits="userSpaceOnUse" x="70" y="460" width="21" height="40">
<path d="M90.9073 465.447L88.6663 460.501L70.9993 499.501H75.3993L90.9073 465.447Z" fill="white"/>
</mask>
<g mask="url(#mask0_1_1176)">
<path fill-rule="evenodd" clip-rule="evenodd" d="M70.9993 499.501V499.111H90.9073V499.501H70.9993Z" fill="#241264"/>
<path fill-rule="evenodd" clip-rule="evenodd" d="M70.9993 499.176V498.982H90.9073V499.176H70.9993Z" fill="#241264"/>
<path fill-rule="evenodd" clip-rule="evenodd" d="M70.9993 499.047V498.852H90.9073V499.047H70.9993Z" fill="#241264"/>
<path fill-rule="evenodd" clip-rule="evenodd" d="M70.9993 498.917V498.723H90.9073V498.917H70.9993Z" fill="#241264"/>
<path fill-rule="evenodd" clip-rule="evenodd" d="M70.9993 498.788V498.593H90.9073V498.788H70.9993Z" fill="#241264"/>
<path fill-rule="evenodd" clip-rule="evenodd" d="M70.9993 498.658V498.464H90.9073V498.658H70.9993Z" fill="#251264"/>
<path fill-rule="evenodd" clip-rule="evenodd" d="M70.9993 498.529V498.334H90.9073V498.529H70.9993Z" fill="#251264"/>
<path fill-rule="evenodd" clip-rule="evenodd" d="M70.9993 498.399V498.205H90.9073V498.399H70.9993Z" fill="#251265"/>
<path fill-rule="evenodd" clip-rule="evenodd" d="M70.9993 498.27V498.075H90.9073V498.27H70.9993Z" fill="#261265"/>
<path fill-rule="evenodd" clip-rule="evenodd" d="M70.9993 498.14V497.946H90.9073V498.14H70.9993Z" fill="#261265"/>
<path fill-rule="evenodd" clip-rule="evenodd" d="M70.9993 498.011V497.817H90.9073V498.011H70.9993Z" fill="#271265"/>
<path fill-rule="evenodd" clip-rule="evenodd" d="M70.9993 497.881V497.687H90.9073V497.881H70.9993Z" fill="#271265"/>
<path fill-rule="evenodd" clip-rule="evenodd" d="M70.9993 497.752V497.558H90.9073V497.752H70.9993Z" fill="#281266"/>
<path fill-rule="evenodd" clip-rule="evenodd" d="M70.9993 497.622V497.428H90.9073V497.622H70.9993Z" fill="#291266"/>
<path fill-rule="evenodd" clip-rule="evenodd" d="M70.9993 497.493V497.299H90.9073V497.493H70.9993Z" fill="#291266"/>
<path fill-rule="evenodd" clip-rule="evenodd" d="M70.9993 497.363V497.169H90.9073V497.363H70.9993Z" fill="#2A1267"/>
<path fill-rule="evenodd" clip-rule="evenodd" d="M70.9993 497.234V497.04H90.9073V497.234H70.9993Z" fill="#2B1267"/>
<path fill-rule="evenodd" clip-rule="evenodd" d="M70.9993 497.104V496.91H90.9073V497.104H70.9993Z" fill="#2C1267"/>
<path fill-rule="evenodd" clip-rule="evenodd" d="M70.9993 496.975V496.781H90.9073V496.975H70.9993Z" fill="#2D1268"/>
<path fill-rule="evenodd" clip-rule="evenodd" d="M70.9993 496.845V496.651H90.9073V496.845H70.9993Z" fill="#2D1268"/>
<path fill-rule="evenodd" clip-rule="evenodd" d="M70.9993 496.716V496.522H90.9073V496.716H70.9993Z" fill="#2E1269"/>
<path fill-rule="evenodd" clip-rule="evenodd" d="M70.9993 496.586V496.392H90.9073V496.586H70.9993Z" fill="#2F1269"/>
<path fill-rule="evenodd" clip-rule="evenodd" d="M70.9993 496.457V496.263H90.9073V496.457H70.9993Z" fill="#311269"/>
<path fill-rule="evenodd" clip-rule="evenodd" d="M70.9993 496.327V496.133H90.9073V496.327H70.9993Z" fill="#32126A"/>
<path fill-rule="evenodd" clip-rule="evenodd" d="M70.9993 496.198V496.004H90.9073V496.198H70.9993Z" fill="#33126A"/>
<path fill-rule="evenodd" clip-rule="evenodd" d="M70.9993 496.068V495.874H90.9073V496.068H70.9993Z" fill="#34126B"/>
<path fill-rule="evenodd" clip-rule="evenodd" d="M70.9993 495.939V495.745H90.9073V495.939H70.9993Z" fill="#35126B"/>
<path fill-rule="evenodd" clip-rule="evenodd" d="M70.9993 495.809V495.615H90.9073V495.809H70.9993Z" fill="#36126C"/>
<path fill-rule="evenodd" clip-rule="evenodd" d="M70.9993 495.68V495.486H90.9073V495.68H70.9993Z" fill="#38126C"/>
<path fill-rule="evenodd" clip-rule="evenodd" d="M70.9993 495.55V495.356H90.9073V495.55H70.9993Z" fill="#39126D"/>
<path fill-rule="evenodd" clip-rule="evenodd" d="M70.9993 495.421V495.227H90.9073V495.421H70.9993Z" fill="#3A126E"/>
<path fill-rule="evenodd" clip-rule="evenodd" d="M70.9993 495.291V495.097H90.9073V495.291H70.9993Z" fill="#3C126E"/>
<path fill-rule="evenodd" clip-rule="evenodd" d="M70.9993 495.162V494.968H90.9073V495.162H70.9993Z" fill="#3D126F"/>
<path fill-rule="evenodd" clip-rule="evenodd" d="M70.9993 495.032V494.838H90.9073V495.032H70.9993Z" fill="#3E126F"/>
<path fill-rule="evenodd" clip-rule="evenodd" d="M70.9993 494.903V494.709H90.9073V494.903H70.9993Z" fill="#401270"/>
<path fill-rule="evenodd" clip-rule="evenodd" d="M70.9993 494.773V494.579H90.9073V494.773H70.9993Z" fill="#411270"/>
<path fill-rule="evenodd" clip-rule="evenodd" d="M70.9993 494.644V494.45H90.9073V494.644H70.9993Z" fill="#431271"/>
<path fill-rule="evenodd" clip-rule="evenodd" d="M70.9993 494.514V494.32H90.9073V494.514H70.9993Z" fill="#441272"/>
<path fill-rule="evenodd" clip-rule="evenodd" d="M70.9993 494.385V494.191H90.9073V494.385H70.9993Z" fill="#461272"/>
<path fill-rule="evenodd" clip-rule="evenodd" d="M70.9993 494.255V494.061H90.9073V494.255H70.9993Z" fill="#471273"/>
<path fill-rule="evenodd" clip-rule="evenodd" d="M70.9993 494.126V493.932H90.9073V494.126H70.9993Z" fill="#491274"/>
<path fill-rule="evenodd" clip-rule="evenodd" d="M70.9993 493.996V493.802H90.9073V493.996H70.9993Z" fill="#4B1274"/>
<path fill-rule="evenodd" clip-rule="evenodd" d="M70.9993 493.867V493.673H90.9073V493.867H70.9993Z" fill="#4C1275"/>
<path fill-rule="evenodd" clip-rule="evenodd" d="M70.9993 493.738V493.543H90.9073V493.738H70.9993Z" fill="#4E1276"/>
<path fill-rule="evenodd" clip-rule="evenodd" d="M70.9993 493.608V493.414H90.9073V493.608H70.9993Z" fill="#501276"/>
<path fill-rule="evenodd" clip-rule="evenodd" d="M70.9993 493.479V493.284H90.9073V493.479H70.9993Z" fill="#511277"/>
<path fill-rule="evenodd" clip-rule="evenodd" d="M70.9993 493.349V493.155H90.9073V493.349H70.9993Z" fill="#531278"/>
<path fill-rule="evenodd" clip-rule="evenodd" d="M70.9993 493.22V493.025H90.9073V493.22H70.9993Z" fill="#551278"/>
<path fill-rule="evenodd" clip-rule="evenodd" d="M70.9993 493.09V492.896H90.9073V493.09H70.9993Z" fill="#571279"/>
<path fill-rule="evenodd" clip-rule="evenodd" d="M70.9993 492.961V492.766H90.9073V492.961H70.9993Z" fill="#58127A"/>
<path fill-rule="evenodd" clip-rule="evenodd" d="M70.9993 492.831V492.637H90.9073V492.831H70.9993Z" fill="#5A127B"/>
<path fill-rule="evenodd" clip-rule="evenodd" d="M70.9993 492.702V492.507H90.9073V492.702H70.9993Z" fill="#5C127B"/>
<path fill-rule="evenodd" clip-rule="evenodd" d="M70.9993 492.572V492.378H90.9073V492.572H70.9993Z" fill="#5E127C"/>
<path fill-rule="evenodd" clip-rule="evenodd" d="M70.9993 492.443V492.248H90.9073V492.443H70.9993Z" fill="#60127D"/>
<path fill-rule="evenodd" clip-rule="evenodd" d="M70.9993 492.313V492.119H90.9073V492.313H70.9993Z" fill="#62127D"/>
<path fill-rule="evenodd" clip-rule="evenodd" d="M70.9993 492.184V491.989H90.9073V492.184H70.9993Z" fill="#63127E"/>
<path fill-rule="evenodd" clip-rule="evenodd" d="M70.9993 492.054V491.86H90.9073V492.054H70.9993Z" fill="#65127F"/>
<path fill-rule="evenodd" clip-rule="evenodd" d="M70.9993 491.925V491.73H90.9073V491.925H70.9993Z" fill="#671280"/>
<path fill-rule="evenodd" clip-rule="evenodd" d="M70.9993 491.795V491.601H90.9073V491.795H70.9993Z" fill="#691280"/>
<path fill-rule="evenodd" clip-rule="evenodd" d="M70.9993 491.666V491.471H90.9073V491.666H70.9993Z" fill="#6B1281"/>
<path fill-rule="evenodd" clip-rule="evenodd" d="M70.9993 491.536V491.342H90.9073V491.536H70.9993Z" fill="#6D1282"/>
<path fill-rule="evenodd" clip-rule="evenodd" d="M70.9993 491.407V491.212H90.9073V491.407H70.9993Z" fill="#6F1283"/>
<path fill-rule="evenodd" clip-rule="evenodd" d="M70.9993 491.277V491.083H90.9073V491.277H70.9993Z" fill="#711283"/>
<path fill-rule="evenodd" clip-rule="evenodd" d="M70.9993 491.148V490.953H90.9073V491.148H70.9993Z" fill="#731284"/>
<path fill-rule="evenodd" clip-rule="evenodd" d="M70.9993 491.018V490.824H90.9073V491.018H70.9993Z" fill="#741285"/>
<path fill-rule="evenodd" clip-rule="evenodd" d="M70.9993 490.889V490.694H90.9073V490.889H70.9993Z" fill="#761285"/>
<path fill-rule="evenodd" clip-rule="evenodd" d="M70.9993 490.759V490.565H90.9073V490.759H70.9993Z" fill="#781286"/>
<path fill-rule="evenodd" clip-rule="evenodd" d="M70.9993 490.63V490.435H90.9073V490.63H70.9993Z" fill="#7A1287"/>
<path fill-rule="evenodd" clip-rule="evenodd" d="M70.9993 490.5V490.306H90.9073V490.5H70.9993Z" fill="#7C1287"/>
<path fill-rule="evenodd" clip-rule="evenodd" d="M70.9993 490.371V490.176H90.9073V490.371H70.9993Z" fill="#7E1288"/>
<path fill-rule="evenodd" clip-rule="evenodd" d="M70.9993 490.241V490.047H90.9073V490.241H70.9993Z" fill="#801289"/>
<path fill-rule="evenodd" clip-rule="evenodd" d="M70.9993 490.112V489.917H90.9073V490.112H70.9993Z" fill="#82128A"/>
<path fill-rule="evenodd" clip-rule="evenodd" d="M70.9993 489.982V489.788H90.9073V489.982H70.9993Z" fill="#84128A"/>
<path fill-rule="evenodd" clip-rule="evenodd" d="M70.9993 489.853V489.658H90.9073V489.853H70.9993Z" fill="#86128B"/>
<path fill-rule="evenodd" clip-rule="evenodd" d="M70.9993 489.723V489.529H90.9073V489.723H70.9993Z" fill="#88128B"/>
<path fill-rule="evenodd" clip-rule="evenodd" d="M70.9993 489.594V489.4H90.9073V489.594H70.9993Z" fill="#89128C"/>
<path fill-rule="evenodd" clip-rule="evenodd" d="M70.9993 489.464V489.27H90.9073V489.464H70.9993Z" fill="#8B128D"/>
<path fill-rule="evenodd" clip-rule="evenodd" d="M70.9993 489.335V489.141H90.9073V489.335H70.9993Z" fill="#8D128D"/>
<path fill-rule="evenodd" clip-rule="evenodd" d="M70.9993 489.205V489.011H90.9073V489.205H70.9993Z" fill="#8F128E"/>
<path fill-rule="evenodd" clip-rule="evenodd" d="M70.9993 489.076V488.882H90.9073V489.076H70.9993Z" fill="#91128F"/>
<path fill-rule="evenodd" clip-rule="evenodd" d="M70.9993 488.946V488.752H90.9073V488.946H70.9993Z" fill="#93128F"/>
<path fill-rule="evenodd" clip-rule="evenodd" d="M70.9993 488.817V488.623H90.9073V488.817H70.9993Z" fill="#941290"/>
<path fill-rule="evenodd" clip-rule="evenodd" d="M70.9993 488.687V488.493H90.9073V488.687H70.9993Z" fill="#961290"/>
<path fill-rule="evenodd" clip-rule="evenodd" d="M70.9993 488.558V488.364H90.9073V488.558H70.9993Z" fill="#981291"/>
<path fill-rule="evenodd" clip-rule="evenodd" d="M70.9993 488.428V488.234H90.9073V488.428H70.9993Z" fill="#9A1291"/>
<path fill-rule="evenodd" clip-rule="evenodd" d="M70.9993 488.299V488.105H90.9073V488.299H70.9993Z" fill="#9C1292"/>
<path fill-rule="evenodd" clip-rule="evenodd" d="M70.9993 488.169V487.975H90.9073V488.169H70.9993Z" fill="#9D1293"/>
<path fill-rule="evenodd" clip-rule="evenodd" d="M70.9993 488.04V487.846H90.9073V488.04H70.9993Z" fill="#9F1293"/>
<path fill-rule="evenodd" clip-rule="evenodd" d="M70.9993 487.91V487.716H90.9073V487.91H70.9993Z" fill="#A11294"/>
<path fill-rule="evenodd" clip-rule="evenodd" d="M70.9993 487.781V487.587H90.9073V487.781H70.9993Z" fill="#A21294"/>
<path fill-rule="evenodd" clip-rule="evenodd" d="M70.9993 487.651V487.457H90.9073V487.651H70.9993Z" fill="#A41294"/>
<path fill-rule="evenodd" clip-rule="evenodd" d="M70.9993 487.522V487.328H90.9073V487.522H70.9993Z" fill="#A61295"/>
<path fill-rule="evenodd" clip-rule="evenodd" d="M70.9993 487.392V487.198H90.9073V487.392H70.9993Z" fill="#A71295"/>
<path fill-rule="evenodd" clip-rule="evenodd" d="M70.9993 487.263V487.069H90.9073V487.263H70.9993Z" fill="#A91296"/>
<path fill-rule="evenodd" clip-rule="evenodd" d="M70.9993 487.133V486.939H90.9073V487.133H70.9993Z" fill="#AB1296"/>
<path fill-rule="evenodd" clip-rule="evenodd" d="M70.9993 487.004V486.81H90.9073V487.004H70.9993Z" fill="#AC1297"/>
<path fill-rule="evenodd" clip-rule="evenodd" d="M70.9993 486.874V486.68H90.9073V486.874H70.9993Z" fill="#AE1297"/>
<path fill-rule="evenodd" clip-rule="evenodd" d="M70.9993 486.745V486.551H90.9073V486.745H70.9993Z" fill="#AF1297"/>
<path fill-rule="evenodd" clip-rule="evenodd" d="M70.9993 486.615V486.421H90.9073V486.615H70.9993Z" fill="#B11298"/>
<path fill-rule="evenodd" clip-rule="evenodd" d="M70.9993 486.486V486.292H90.9073V486.486H70.9993Z" fill="#B21298"/>
<path fill-rule="evenodd" clip-rule="evenodd" d="M70.9993 486.356V486.162H90.9073V486.356H70.9993Z" fill="#B31298"/>
<path fill-rule="evenodd" clip-rule="evenodd" d="M70.9993 486.227V486.033H90.9073V486.227H70.9993Z" fill="#B51298"/>
<path fill-rule="evenodd" clip-rule="evenodd" d="M70.9993 486.097V485.903H90.9073V486.097H70.9993Z" fill="#B61299"/>
<path fill-rule="evenodd" clip-rule="evenodd" d="M70.9993 485.968V485.774H90.9073V485.968H70.9993Z" fill="#B81299"/>
<path fill-rule="evenodd" clip-rule="evenodd" d="M70.9993 485.838V485.644H90.9073V485.838H70.9993Z" fill="#B91299"/>
<path fill-rule="evenodd" clip-rule="evenodd" d="M70.9993 485.709V485.515H90.9073V485.709H70.9993Z" fill="#BA1299"/>
<path fill-rule="evenodd" clip-rule="evenodd" d="M70.9993 485.579V485.385H90.9073V485.579H70.9993Z" fill="#BB129A"/>
<path fill-rule="evenodd" clip-rule="evenodd" d="M70.9993 485.45V485.256H90.9073V485.45H70.9993Z" fill="#BC129A"/>
<path fill-rule="evenodd" clip-rule="evenodd" d="M70.9993 485.321V485.126H90.9073V485.321H70.9993Z" fill="#BE129A"/>
<path fill-rule="evenodd" clip-rule="evenodd" d="M70.9993 485.191V484.997H90.9073V485.191H70.9993Z" fill="#BF129A"/>
<path fill-rule="evenodd" clip-rule="evenodd" d="M70.9993 485.062V484.867H90.9073V485.062H70.9993Z" fill="#C0129A"/>
<path fill-rule="evenodd" clip-rule="evenodd" d="M70.9993 484.932V484.738H90.9073V484.932H70.9993Z" fill="#C1129A"/>
<path fill-rule="evenodd" clip-rule="evenodd" d="M70.9993 484.803V484.608H90.9073V484.803H70.9993Z" fill="#C2129A"/>
<path fill-rule="evenodd" clip-rule="evenodd" d="M70.9993 484.673V484.479H90.9073V484.673H70.9993Z" fill="#C3129A"/>
<path fill-rule="evenodd" clip-rule="evenodd" d="M70.9993 484.544V484.349H90.9073V484.544H70.9993Z" fill="#C5129A"/>
<path fill-rule="evenodd" clip-rule="evenodd" d="M70.9993 484.414V484.22H90.9073V484.414H70.9993Z" fill="#C6129A"/>
<path fill-rule="evenodd" clip-rule="evenodd" d="M70.9993 484.285V484.09H90.9073V484.285H70.9993Z" fill="#C8129A"/>
<path fill-rule="evenodd" clip-rule="evenodd" d="M70.9993 484.155V483.961H90.9073V484.155H70.9993Z" fill="#C9129A"/>
<path fill-rule="evenodd" clip-rule="evenodd" d="M70.9993 484.026V483.831H90.9073V484.026H70.9993Z" fill="#CA1299"/>
<path fill-rule="evenodd" clip-rule="evenodd" d="M70.9993 483.896V483.702H90.9073V483.896H70.9993Z" fill="#CC1299"/>
<path fill-rule="evenodd" clip-rule="evenodd" d="M70.9993 483.767V483.572H90.9073V483.767H70.9993Z" fill="#CD1399"/>
<path fill-rule="evenodd" clip-rule="evenodd" d="M70.9993 483.637V483.443H90.9073V483.637H70.9993Z" fill="#CF1398"/>
<path fill-rule="evenodd" clip-rule="evenodd" d="M70.9993 483.508V483.313H90.9073V483.508H70.9993Z" fill="#D01398"/>
<path fill-rule="evenodd" clip-rule="evenodd" d="M70.9993 483.378V483.184H90.9073V483.378H70.9993Z" fill="#D11398"/>
<path fill-rule="evenodd" clip-rule="evenodd" d="M70.9993 483.249V483.054H90.9073V483.249H70.9993Z" fill="#D31397"/>
<path fill-rule="evenodd" clip-rule="evenodd" d="M70.9993 483.119V482.925H90.9073V483.119H70.9993Z" fill="#D41497"/>
<path fill-rule="evenodd" clip-rule="evenodd" d="M70.9993 482.99V482.795H90.9073V482.99H70.9993Z" fill="#D51496"/>
<path fill-rule="evenodd" clip-rule="evenodd" d="M70.9993 482.86V482.666H90.9073V482.86H70.9993Z" fill="#D71496"/>
<path fill-rule="evenodd" clip-rule="evenodd" d="M70.9993 482.731V482.536H90.9073V482.731H70.9993Z" fill="#D81595"/>
<path fill-rule="evenodd" clip-rule="evenodd" d="M70.9993 482.601V482.407H90.9073V482.601H70.9993Z" fill="#D91595"/>
<path fill-rule="evenodd" clip-rule="evenodd" d="M70.9993 482.472V482.277H90.9073V482.472H70.9993Z" fill="#DA1594"/>
<path fill-rule="evenodd" clip-rule="evenodd" d="M70.9993 482.342V482.148H90.9073V482.342H70.9993Z" fill="#DB1693"/>
<path fill-rule="evenodd" clip-rule="evenodd" d="M70.9993 482.213V482.018H90.9073V482.213H70.9993Z" fill="#DD1693"/>
<path fill-rule="evenodd" clip-rule="evenodd" d="M70.9993 482.083V481.889H90.9073V482.083H70.9993Z" fill="#DE1692"/>
<path fill-rule="evenodd" clip-rule="evenodd" d="M70.9993 481.954V481.759H90.9073V481.954H70.9993Z" fill="#DF1791"/>
<path fill-rule="evenodd" clip-rule="evenodd" d="M70.9993 481.824V481.63H90.9073V481.824H70.9993Z" fill="#E01791"/>
<path fill-rule="evenodd" clip-rule="evenodd" d="M70.9993 481.695V481.5H90.9073V481.695H70.9993Z" fill="#E11790"/>
<path fill-rule="evenodd" clip-rule="evenodd" d="M70.9993 481.565V481.371H90.9073V481.565H70.9993Z" fill="#E2188F"/>
<path fill-rule="evenodd" clip-rule="evenodd" d="M70.9993 481.436V481.242H90.9073V481.436H70.9993Z" fill="#E3188E"/>
<path fill-rule="evenodd" clip-rule="evenodd" d="M70.9993 481.306V481.112H90.9073V481.306H70.9993Z" fill="#E4198D"/>
<path fill-rule="evenodd" clip-rule="evenodd" d="M70.9993 481.177V480.983H90.9073V481.177H70.9993Z" fill="#E5198D"/>
<path fill-rule="evenodd" clip-rule="evenodd" d="M70.9993 481.047V480.853H90.9073V481.047H70.9993Z" fill="#E61A8C"/>
<path fill-rule="evenodd" clip-rule="evenodd" d="M70.9993 480.918V480.724H90.9073V480.918H70.9993Z" fill="#E71A8B"/>
<path fill-rule="evenodd" clip-rule="evenodd" d="M70.9993 480.788V480.594H90.9073V480.788H70.9993Z" fill="#E81B8A"/>
<path fill-rule="evenodd" clip-rule="evenodd" d="M70.9993 480.659V480.465H90.9073V480.659H70.9993Z" fill="#E91B89"/>
<path fill-rule="evenodd" clip-rule="evenodd" d="M70.9993 480.529V480.335H90.9073V480.529H70.9993Z" fill="#EA1C88"/>
<path fill-rule="evenodd" clip-rule="evenodd" d="M70.9993 480.4V480.206H90.9073V480.4H70.9993Z" fill="#EB1D87"/>
<path fill-rule="evenodd" clip-rule="evenodd" d="M70.9993 480.27V480.076H90.9073V480.27H70.9993Z" fill="#EC1D86"/>
<path fill-rule="evenodd" clip-rule="evenodd" d="M70.9993 480.141V479.947H90.9073V480.141H70.9993Z" fill="#ED1E85"/>
<path fill-rule="evenodd" clip-rule="evenodd" d="M70.9993 480.011V479.817H90.9073V480.011H70.9993Z" fill="#ED1E84"/>
<path fill-rule="evenodd" clip-rule="evenodd" d="M70.9993 479.882V479.688H90.9073V479.882H70.9993Z" fill="#EE1F83"/>
<path fill-rule="evenodd" clip-rule="evenodd" d="M70.9993 479.752V479.558H90.9073V479.752H70.9993Z" fill="#EF2082"/>
<path fill-rule="evenodd" clip-rule="evenodd" d="M70.9993 479.623V479.429H90.9073V479.623H70.9993Z" fill="#F02081"/>
<path fill-rule="evenodd" clip-rule="evenodd" d="M70.9993 479.493V479.299H90.9073V479.493H70.9993Z" fill="#F12180"/>
<path fill-rule="evenodd" clip-rule="evenodd" d="M70.9993 479.364V479.17H90.9073V479.364H70.9993Z" fill="#F1217F"/>
<path fill-rule="evenodd" clip-rule="evenodd" d="M70.9993 479.234V479.04H90.9073V479.234H70.9993Z" fill="#F2227E"/>
<path fill-rule="evenodd" clip-rule="evenodd" d="M70.9993 479.105V478.911H90.9073V479.105H70.9993Z" fill="#F3237D"/>
<path fill-rule="evenodd" clip-rule="evenodd" d="M70.9993 478.975V478.781H90.9073V478.975H70.9993Z" fill="#F3237C"/>
<path fill-rule="evenodd" clip-rule="evenodd" d="M70.9993 478.846V478.652H90.9073V478.846H70.9993Z" fill="#F4247B"/>
<path fill-rule="evenodd" clip-rule="evenodd" d="M70.9993 478.716V478.522H90.9073V478.716H70.9993Z" fill="#F42579"/>
<path fill-rule="evenodd" clip-rule="evenodd" d="M70.9993 478.587V478.393H90.9073V478.587H70.9993Z" fill="#F52678"/>
<path fill-rule="evenodd" clip-rule="evenodd" d="M70.9993 478.457V478.263H90.9073V478.457H70.9993Z" fill="#F62677"/>
<path fill-rule="evenodd" clip-rule="evenodd" d="M70.9993 478.328V478.134H90.9073V478.328H70.9993Z" fill="#F62776"/>
<path fill-rule="evenodd" clip-rule="evenodd" d="M70.9993 478.198V478.004H90.9073V478.198H70.9993Z" fill="#F72875"/>
<path fill-rule="evenodd" clip-rule="evenodd" d="M70.9993 478.069V477.875H90.9073V478.069H70.9993Z" fill="#F72874"/>
<path fill-rule="evenodd" clip-rule="evenodd" d="M70.9993 477.939V477.745H90.9073V477.939H70.9993Z" fill="#F82973"/>
<path fill-rule="evenodd" clip-rule="evenodd" d="M70.9993 477.81V477.616H90.9073V477.81H70.9993Z" fill="#F82A71"/>
<path fill-rule="evenodd" clip-rule="evenodd" d="M70.9993 477.68V477.486H90.9073V477.68H70.9993Z" fill="#F92B70"/>
<path fill-rule="evenodd" clip-rule="evenodd" d="M70.9993 477.551V477.357H90.9073V477.551H70.9993Z" fill="#F92B6F"/>
<path fill-rule="evenodd" clip-rule="evenodd" d="M70.9993 477.421V477.227H90.9073V477.421H70.9993Z" fill="#F92C6E"/>
<path fill-rule="evenodd" clip-rule="evenodd" d="M70.9993 477.292V477.098H90.9073V477.292H70.9993Z" fill="#FA2D6D"/>
<path fill-rule="evenodd" clip-rule="evenodd" d="M70.9993 477.163V476.968H90.9073V477.163H70.9993Z" fill="#FA2E6C"/>
<path fill-rule="evenodd" clip-rule="evenodd" d="M70.9993 477.033V476.839H90.9073V477.033H70.9993Z" fill="#FA2F6B"/>
<path fill-rule="evenodd" clip-rule="evenodd" d="M70.9993 476.904V476.709H90.9073V476.904H70.9993Z" fill="#FB2F6A"/>
<path fill-rule="evenodd" clip-rule="evenodd" d="M70.9993 476.774V476.58H90.9073V476.774H70.9993Z" fill="#FB3068"/>
<path fill-rule="evenodd" clip-rule="evenodd" d="M70.9993 476.645V476.45H90.9073V476.645H70.9993Z" fill="#FB3167"/>
<path fill-rule="evenodd" clip-rule="evenodd" d="M70.9993 476.515V476.321H90.9073V476.515H70.9993Z" fill="#FB3266"/>
<path fill-rule="evenodd" clip-rule="evenodd" d="M70.9993 476.386V476.191H90.9073V476.386H70.9993Z" fill="#FB3365"/>
<path fill-rule="evenodd" clip-rule="evenodd" d="M70.9993 476.256V476.062H90.9073V476.256H70.9993Z" fill="#FC3364"/>
<path fill-rule="evenodd" clip-rule="evenodd" d="M70.9993 476.127V475.932H90.9073V476.127H70.9993Z" fill="#FC3463"/>
<path fill-rule="evenodd" clip-rule="evenodd" d="M70.9993 475.997V475.803H90.9073V475.997H70.9993Z" fill="#FC3562"/>
<path fill-rule="evenodd" clip-rule="evenodd" d="M70.9993 475.868V475.673H90.9073V475.868H70.9993Z" fill="#FC3661"/>
<path fill-rule="evenodd" clip-rule="evenodd" d="M70.9993 475.738V475.544H90.9073V475.738H70.9993Z" fill="#FC3760"/>
<path fill-rule="evenodd" clip-rule="evenodd" d="M70.9993 475.609V475.414H90.9073V475.609H70.9993Z" fill="#FC385F"/>
<path fill-rule="evenodd" clip-rule="evenodd" d="M70.9993 475.479V475.285H90.9073V475.479H70.9993Z" fill="#FC385E"/>
<path fill-rule="evenodd" clip-rule="evenodd" d="M70.9993 475.35V475.155H90.9073V475.35H70.9993Z" fill="#FC395D"/>
<path fill-rule="evenodd" clip-rule="evenodd" d="M70.9993 475.22V475.026H90.9073V475.22H70.9993Z" fill="#FC3A5B"/>
<path fill-rule="evenodd" clip-rule="evenodd" d="M70.9993 475.091V474.896H90.9073V475.091H70.9993Z" fill="#FC3B5A"/>
<path fill-rule="evenodd" clip-rule="evenodd" d="M70.9993 474.961V474.767H90.9073V474.961H70.9993Z" fill="#FC3C59"/>
<path fill-rule="evenodd" clip-rule="evenodd" d="M70.9993 474.832V474.637H90.9073V474.832H70.9993Z" fill="#FC3D58"/>
<path fill-rule="evenodd" clip-rule="evenodd" d="M70.9993 474.702V474.508H90.9073V474.702H70.9993Z" fill="#FC3E57"/>
<path fill-rule="evenodd" clip-rule="evenodd" d="M70.9993 474.573V474.378H90.9073V474.573H70.9993Z" fill="#FC3F55"/>
<path fill-rule="evenodd" clip-rule="evenodd" d="M70.9993 474.443V474.249H90.9073V474.443H70.9993Z" fill="#FC4054"/>
<path fill-rule="evenodd" clip-rule="evenodd" d="M70.9993 474.314V474.119H90.9073V474.314H70.9993Z" fill="#FC4252"/>
<path fill-rule="evenodd" clip-rule="evenodd" d="M70.9993 474.184V473.99H90.9073V474.184H70.9993Z" fill="#FC4351"/>
<path fill-rule="evenodd" clip-rule="evenodd" d="M70.9993 474.055V473.86H90.9073V474.055H70.9993Z" fill="#FC4450"/>
<path fill-rule="evenodd" clip-rule="evenodd" d="M70.9993 473.925V473.731H90.9073V473.925H70.9993Z" fill="#FC454E"/>
<path fill-rule="evenodd" clip-rule="evenodd" d="M70.9993 473.796V473.601H90.9073V473.796H70.9993Z" fill="#FC474D"/>
<path fill-rule="evenodd" clip-rule="evenodd" d="M70.9993 473.666V473.472H90.9073V473.666H70.9993Z" fill="#FC484B"/>
<path fill-rule="evenodd" clip-rule="evenodd" d="M70.9993 473.537V473.342H90.9073V473.537H70.9993Z" fill="#FC494A"/>
<path fill-rule="evenodd" clip-rule="evenodd" d="M70.9993 473.407V473.213H90.9073V473.407H70.9993Z" fill="#FC4B48"/>
<path fill-rule="evenodd" clip-rule="evenodd" d="M70.9993 473.278V473.083H90.9073V473.278H70.9993Z" fill="#FC4C47"/>
<path fill-rule="evenodd" clip-rule="evenodd" d="M70.9993 473.148V472.954H90.9073V473.148H70.9993Z" fill="#FC4E45"/>
<path fill-rule="evenodd" clip-rule="evenodd" d="M70.9993 473.019V472.825H90.9073V473.019H70.9993Z" fill="#FC4F43"/>
<path fill-rule="evenodd" clip-rule="evenodd" d="M70.9993 472.889V472.695H90.9073V472.889H70.9993Z" fill="#FC5042"/>
<path fill-rule="evenodd" clip-rule="evenodd" d="M70.9993 472.76V472.566H90.9073V472.76H70.9993Z" fill="#FC5240"/>
<path fill-rule="evenodd" clip-rule="evenodd" d="M70.9993 472.63V472.436H90.9073V472.63H70.9993Z" fill="#FC533F"/>
<path fill-rule="evenodd" clip-rule="evenodd" d="M70.9993 472.501V472.307H90.9073V472.501H70.9993Z" fill="#FC553D"/>
<path fill-rule="evenodd" clip-rule="evenodd" d="M70.9993 472.371V472.177H90.9073V472.371H70.9993Z" fill="#FC563B"/>
<path fill-rule="evenodd" clip-rule="evenodd" d="M70.9993 472.242V472.048H90.9073V472.242H70.9993Z" fill="#FC583A"/>
<path fill-rule="evenodd" clip-rule="evenodd" d="M70.9993 472.112V471.918H90.9073V472.112H70.9993Z" fill="#FC5938"/>
<path fill-rule="evenodd" clip-rule="evenodd" d="M70.9993 471.983V471.789H90.9073V471.983H70.9993Z" fill="#FC5B36"/>
<path fill-rule="evenodd" clip-rule="evenodd" d="M70.9993 471.853V471.659H90.9073V471.853H70.9993Z" fill="#FC5C35"/>
<path fill-rule="evenodd" clip-rule="evenodd" d="M70.9993 471.724V471.53H90.9073V471.724H70.9993Z" fill="#FC5E33"/>
<path fill-rule="evenodd" clip-rule="evenodd" d="M70.9993 471.594V471.4H90.9073V471.594H70.9993Z" fill="#FC5F31"/>
<path fill-rule="evenodd" clip-rule="evenodd" d="M70.9993 471.465V471.271H90.9073V471.465H70.9993Z" fill="#FC6130"/>
<path fill-rule="evenodd" clip-rule="evenodd" d="M70.9993 471.335V471.141H90.9073V471.335H70.9993Z" fill="#FC622E"/>
<path fill-rule="evenodd" clip-rule="evenodd" d="M70.9993 471.206V471.012H90.9073V471.206H70.9993Z" fill="#FC642C"/>
<path fill-rule="evenodd" clip-rule="evenodd" d="M70.9993 471.076V470.882H90.9073V471.076H70.9993Z" fill="#FC652B"/>
<path fill-rule="evenodd" clip-rule="evenodd" d="M70.9993 470.947V470.753H90.9073V470.947H70.9993Z" fill="#FC6729"/>
<path fill-rule="evenodd" clip-rule="evenodd" d="M70.9993 470.817V470.623H90.9073V470.817H70.9993Z" fill="#FC6828"/>
<path fill-rule="evenodd" clip-rule="evenodd" d="M70.9993 470.688V470.494H90.9073V470.688H70.9993Z" fill="#FC6A26"/>
<path fill-rule="evenodd" clip-rule="evenodd" d="M70.9993 470.558V470.364H90.9073V470.558H70.9993Z" fill="#FC6B25"/>
<path fill-rule="evenodd" clip-rule="evenodd" d="M70.9993 470.429V470.235H90.9073V470.429H70.9993Z" fill="#FC6D23"/>
<path fill-rule="evenodd" clip-rule="evenodd" d="M70.9993 470.299V470.105H90.9073V470.299H70.9993Z" fill="#FC6E21"/>
<path fill-rule="evenodd" clip-rule="evenodd" d="M70.9993 470.17V469.976H90.9073V470.17H70.9993Z" fill="#FC7020"/>
<path fill-rule="evenodd" clip-rule="evenodd" d="M70.9993 470.04V469.846H90.9073V470.04H70.9993Z" fill="#FC711F"/>
<path fill-rule="evenodd" clip-rule="evenodd" d="M70.9993 469.911V469.717H90.9073V469.911H70.9993Z" fill="#FC721D"/>
<path fill-rule="evenodd" clip-rule="evenodd" d="M70.9993 469.781V469.587H90.9073V469.781H70.9993Z" fill="#FC741C"/>
<path fill-rule="evenodd" clip-rule="evenodd" d="M70.9993 469.652V469.458H90.9073V469.652H70.9993Z" fill="#FC751A"/>
<path fill-rule="evenodd" clip-rule="evenodd" d="M70.9993 469.522V469.328H90.9073V469.522H70.9993Z" fill="#FC7619"/>
<path fill-rule="evenodd" clip-rule="evenodd" d="M70.9993 469.393V469.199H90.9073V469.393H70.9993Z" fill="#FC7718"/>
<path fill-rule="evenodd" clip-rule="evenodd" d="M70.9993 469.263V469.069H90.9073V469.263H70.9993Z" fill="#FC7916"/>
<path fill-rule="evenodd" clip-rule="evenodd" d="M70.9993 469.134V468.94H90.9073V469.134H70.9993Z" fill="#FC7A15"/>
<path fill-rule="evenodd" clip-rule="evenodd" d="M70.9993 469.004V468.81H90.9073V469.004H70.9993Z" fill="#FC7B14"/>
<path fill-rule="evenodd" clip-rule="evenodd" d="M70.9993 468.875V468.681H90.9073V468.875H70.9993Z" fill="#FC7C13"/>
<path fill-rule="evenodd" clip-rule="evenodd" d="M70.9993 468.746V468.551H90.9073V468.746H70.9993Z" fill="#FC7D12"/>
<path fill-rule="evenodd" clip-rule="evenodd" d="M70.9993 468.616V468.422H90.9073V468.616H70.9993Z" fill="#FC7E10"/>
<path fill-rule="evenodd" clip-rule="evenodd" d="M70.9993 468.487V468.292H90.9073V468.487H70.9993Z" fill="#FC7F0F"/>
<path fill-rule="evenodd" clip-rule="evenodd" d="M70.9993 468.357V468.163H90.9073V468.357H70.9993Z" fill="#FC800E"/>
<path fill-rule="evenodd" clip-rule="evenodd" d="M70.9993 468.228V468.033H90.9073V468.228H70.9993Z" fill="#FC810D"/>
<path fill-rule="evenodd" clip-rule="evenodd" d="M70.9993 468.098V467.904H90.9073V468.098H70.9993Z" fill="#FC820D"/>
<path fill-rule="evenodd" clip-rule="evenodd" d="M70.9993 467.969V467.774H90.9073V467.969H70.9993Z" fill="#FC830C"/>
<path fill-rule="evenodd" clip-rule="evenodd" d="M70.9993 467.839V467.645H90.9073V467.839H70.9993Z" fill="#FC830B"/>
<path fill-rule="evenodd" clip-rule="evenodd" d="M70.9993 467.71V467.515H90.9073V467.71H70.9993Z" fill="#FC840A"/>
<path fill-rule="evenodd" clip-rule="evenodd" d="M70.9993 467.58V467.386H90.9073V467.58H70.9993Z" fill="#FC8509"/>
<path fill-rule="evenodd" clip-rule="evenodd" d="M70.9993 467.451V467.256H90.9073V467.451H70.9993Z" fill="#FC8509"/>
<path fill-rule="evenodd" clip-rule="evenodd" d="M70.9993 467.321V467.127H90.9073V467.321H70.9993Z" fill="#FC8608"/>
<path fill-rule="evenodd" clip-rule="evenodd" d="M70.9993 467.192V466.997H90.9073V467.192H70.9993Z" fill="#FC8608"/>
<path fill-rule="evenodd" clip-rule="evenodd" d="M70.9993 467.062V466.868H90.9073V467.062H70.9993Z" fill="#FC8707"/>
<path fill-rule="evenodd" clip-rule="evenodd" d="M70.9993 466.933V466.738H90.9073V466.933H70.9993Z" fill="#FC8707"/>
<path fill-rule="evenodd" clip-rule="evenodd" d="M70.9993 466.803V466.609H90.9073V466.803H70.9993Z" fill="#FC8707"/>
<path fill-rule="evenodd" clip-rule="evenodd" d="M70.9993 466.674V466.479H90.9073V466.674H70.9993Z" fill="#FC8806"/>
<path fill-rule="evenodd" clip-rule="evenodd" d="M70.9993 466.544V466.35H90.9073V466.544H70.9993Z" fill="#FC8806"/>
<path fill-rule="evenodd" clip-rule="evenodd" d="M70.9993 466.415V466.22H90.9073V466.415H70.9993Z" fill="#FC8806"/>
<path fill-rule="evenodd" clip-rule="evenodd" d="M70.9993 466.285V460.501H90.9073V466.285H70.9993Z" fill="#FC8806"/>
</g>
<path fill-rule="evenodd" clip-rule="evenodd" d="M129.697 140.16C133.154 135.295 138.372 135.232 144.497 137.527C124.241 121.037 93.3519 112.528 70.3498 128.545C47.1518 144.698 39.5275 181.894 39.9991 210C63.3972 197.209 89.5932 197.96 108.526 178.812C118.934 168.285 126.927 153.451 129.697 140.16Z" fill="#241264"/>
<path fill-rule="evenodd" clip-rule="evenodd" d="M39.9992 210C15.4845 228.224 0.504816 253.811 0.0111486 280C-1.25419 347.26 105.503 387.14 160 400.001C84.7843 370.083 9.01383 297.994 39.9992 210Z" fill="#241264"/>
<path fill-rule="evenodd" clip-rule="evenodd" d="M380 210C337.225 252.245 285.301 255.468 230 260C202.8 262.229 172.536 263.43 151.639 283.106C126.487 306.789 127.381 337.543 138.579 366.028C131.495 348.901 126.754 330.593 126.693 312.674C126.635 295.397 131.048 278.518 141.198 264.177C160.983 236.224 199.013 217.804 240 200C302.964 172.65 360 124.484 360 55.0574C360 37.7227 356.59 19.3334 350 0C312.951 174.066 172.48 147.808 114.104 232.191C77.0406 285.761 116.796 356.494 160 400C149.475 377.1 131.32 339.677 147.483 316.299C163.732 292.795 196.396 292.722 230.052 292.963C254.583 293.138 276.016 292.475 300 285.687C334.746 275.852 360.685 254.327 380 210Z" fill="#241264"/>
<mask id="mask1_1_1176" style="mask-type:luminance" maskUnits="userSpaceOnUse" x="125" y="79" width="275" height="322">
<path d="M159.912 164.154C159.45 168.77 157.015 173.151 152.984 176.471C153.425 164.51 135.471 163.224 125.546 164.486C129.121 157.877 131.762 150.939 133.13 144.377C136.175 140.092 140.588 139.533 145.782 141.03C154.987 143.677 160.828 155.026 159.912 164.154ZM138.586 366.047C127.382 337.557 126.48 306.795 151.64 283.105C175.979 259.824 207.805 254.419 240 250C281.803 244.263 316.944 239.897 349.449 208.827C383.824 175.974 395.912 125.944 400 79.9995C379.045 114.58 355.024 157.832 319.999 180C267.189 213.427 197.212 210.88 154.821 248.938C119.312 280.818 121.369 324.425 138.586 366.047ZM299.999 310.001C273.098 328.025 250.739 328.63 220.022 328.336C206.409 328.204 191.036 328.409 179.932 332.011C150.432 341.582 154.732 372.754 160 400C155.27 389.709 149.33 376.974 145.284 363.888C140.098 347.115 138.171 329.767 147.482 316.3C155.936 304.072 171.123 300.013 186.646 300.005C222.574 299.988 264.83 316.146 299.999 310.001Z" fill="white"/>
</mask>
<g mask="url(#mask1_1_1176)">
<path fill-rule="evenodd" clip-rule="evenodd" d="M119.312 400.001V396.807H400V400.001H119.312Z" fill="#241264"/>
<path fill-rule="evenodd" clip-rule="evenodd" d="M119.312 397.338V395.744H400V397.338H119.312Z" fill="#241264"/>
<path fill-rule="evenodd" clip-rule="evenodd" d="M119.312 396.275V394.682H400V396.275H119.312Z" fill="#241264"/>
<path fill-rule="evenodd" clip-rule="evenodd" d="M119.312 395.213V393.619H400V395.213H119.312Z" fill="#241264"/>
<path fill-rule="evenodd" clip-rule="evenodd" d="M119.312 394.15V392.557H400V394.15H119.312Z" fill="#241264"/>
<path fill-rule="evenodd" clip-rule="evenodd" d="M119.312 393.088V391.494H400V393.088H119.312Z" fill="#251264"/>
<path fill-rule="evenodd" clip-rule="evenodd" d="M119.312 392.026V390.432H400V392.026H119.312Z" fill="#251264"/>
<path fill-rule="evenodd" clip-rule="evenodd" d="M119.312 390.963V389.369H400V390.963H119.312Z" fill="#251265"/>
<path fill-rule="evenodd" clip-rule="evenodd" d="M119.312 389.9V388.307H400V389.9H119.312Z" fill="#261265"/>
<path fill-rule="evenodd" clip-rule="evenodd" d="M119.312 388.838V387.244H400V388.838H119.312Z" fill="#261265"/>
<path fill-rule="evenodd" clip-rule="evenodd" d="M119.312 387.776V386.182H400V387.776H119.312Z" fill="#271265"/>
<path fill-rule="evenodd" clip-rule="evenodd" d="M119.312 386.713V385.119H400V386.713H119.312Z" fill="#271265"/>
<path fill-rule="evenodd" clip-rule="evenodd" d="M119.312 385.651V384.057H400V385.651H119.312Z" fill="#281266"/>
<path fill-rule="evenodd" clip-rule="evenodd" d="M119.312 384.588V382.994H400V384.588H119.312Z" fill="#291266"/>
<path fill-rule="evenodd" clip-rule="evenodd" d="M119.312 383.525V381.932H400V383.525H119.312Z" fill="#291266"/>
<path fill-rule="evenodd" clip-rule="evenodd" d="M119.312 382.463V380.869H400V382.463H119.312Z" fill="#2A1267"/>
<path fill-rule="evenodd" clip-rule="evenodd" d="M119.312 381.401V379.807H400V381.401H119.312Z" fill="#2B1267"/>
<path fill-rule="evenodd" clip-rule="evenodd" d="M119.312 380.338V378.744H400V380.338H119.312Z" fill="#2C1267"/>
<path fill-rule="evenodd" clip-rule="evenodd" d="M119.312 379.275V377.682H400V379.275H119.312Z" fill="#2D1268"/>
<path fill-rule="evenodd" clip-rule="evenodd" d="M119.312 378.213V376.619H400V378.213H119.312Z" fill="#2D1268"/>
<path fill-rule="evenodd" clip-rule="evenodd" d="M119.312 377.151V375.557H400V377.151H119.312Z" fill="#2E1269"/>
<path fill-rule="evenodd" clip-rule="evenodd" d="M119.312 376.088V374.494H400V376.088H119.312Z" fill="#2F1269"/>
<path fill-rule="evenodd" clip-rule="evenodd" d="M119.312 375.026V373.432H400V375.026H119.312Z" fill="#311269"/>
<path fill-rule="evenodd" clip-rule="evenodd" d="M119.312 373.963V372.369H400V373.963H119.312Z" fill="#32126A"/>
<path fill-rule="evenodd" clip-rule="evenodd" d="M119.312 372.9V371.307H400V372.9H119.312Z" fill="#33126A"/>
<path fill-rule="evenodd" clip-rule="evenodd" d="M119.312 371.838V370.244H400V371.838H119.312Z" fill="#34126B"/>
<path fill-rule="evenodd" clip-rule="evenodd" d="M119.312 370.776V369.182H400V370.776H119.312Z" fill="#35126B"/>
<path fill-rule="evenodd" clip-rule="evenodd" d="M119.312 369.713V368.119H400V369.713H119.312Z" fill="#36126C"/>
<path fill-rule="evenodd" clip-rule="evenodd" d="M119.312 368.65V367.057H400V368.65H119.312Z" fill="#38126C"/>
<path fill-rule="evenodd" clip-rule="evenodd" d="M119.312 367.588V365.994H400V367.588H119.312Z" fill="#39126D"/>
<path fill-rule="evenodd" clip-rule="evenodd" d="M119.312 366.526V364.932H400V366.526H119.312Z" fill="#3A126E"/>
<path fill-rule="evenodd" clip-rule="evenodd" d="M119.312 365.463V363.869H400V365.463H119.312Z" fill="#3C126E"/>
<path fill-rule="evenodd" clip-rule="evenodd" d="M119.312 364.4V362.807H400V364.4H119.312Z" fill="#3D126F"/>
<path fill-rule="evenodd" clip-rule="evenodd" d="M119.312 363.338V361.744H400V363.338H119.312Z" fill="#3E126F"/>
<path fill-rule="evenodd" clip-rule="evenodd" d="M119.312 362.275V360.682H400V362.275H119.312Z" fill="#401270"/>
<path fill-rule="evenodd" clip-rule="evenodd" d="M119.312 361.213V359.619H400V361.213H119.312Z" fill="#411270"/>
<path fill-rule="evenodd" clip-rule="evenodd" d="M119.312 360.151V358.557H400V360.151H119.312Z" fill="#431271"/>
<path fill-rule="evenodd" clip-rule="evenodd" d="M119.312 359.088V357.494H400V359.088H119.312Z" fill="#441272"/>
<path fill-rule="evenodd" clip-rule="evenodd" d="M119.312 358.025V356.431H400V358.025H119.312Z" fill="#461272"/>
<path fill-rule="evenodd" clip-rule="evenodd" d="M119.312 356.963V355.369H400V356.963H119.312Z" fill="#471273"/>
<path fill-rule="evenodd" clip-rule="evenodd" d="M119.312 355.901V354.306H400V355.901H119.312Z" fill="#491274"/>
<path fill-rule="evenodd" clip-rule="evenodd" d="M119.312 354.838V353.244H400V354.838H119.312Z" fill="#4B1274"/>
<path fill-rule="evenodd" clip-rule="evenodd" d="M119.312 353.775V352.181H400V353.775H119.312Z" fill="#4C1275"/>
<path fill-rule="evenodd" clip-rule="evenodd" d="M119.312 352.713V351.119H400V352.713H119.312Z" fill="#4E1276"/>
<path fill-rule="evenodd" clip-rule="evenodd" d="M119.312 351.65V350.056H400V351.65H119.312Z" fill="#501276"/>
<path fill-rule="evenodd" clip-rule="evenodd" d="M119.312 350.588V348.994H400V350.588H119.312Z" fill="#511277"/>
<path fill-rule="evenodd" clip-rule="evenodd" d="M119.312 349.526V347.931H400V349.526H119.312Z" fill="#531278"/>
<path fill-rule="evenodd" clip-rule="evenodd" d="M119.312 348.463V346.869H400V348.463H119.312Z" fill="#551278"/>
<path fill-rule="evenodd" clip-rule="evenodd" d="M119.312 347.4V345.806H400V347.4H119.312Z" fill="#571279"/>
<path fill-rule="evenodd" clip-rule="evenodd" d="M119.312 346.338V344.744H400V346.338H119.312Z" fill="#58127A"/>
<path fill-rule="evenodd" clip-rule="evenodd" d="M119.312 345.275V343.681H400V345.275H119.312Z" fill="#5A127B"/>
<path fill-rule="evenodd" clip-rule="evenodd" d="M119.312 344.213V342.619H400V344.213H119.312Z" fill="#5C127B"/>
<path fill-rule="evenodd" clip-rule="evenodd" d="M119.312 343.15V341.556H400V343.15H119.312Z" fill="#5E127C"/>
<path fill-rule="evenodd" clip-rule="evenodd" d="M119.312 342.088V340.494H400V342.088H119.312Z" fill="#60127D"/>
<path fill-rule="evenodd" clip-rule="evenodd" d="M119.312 341.025V339.431H400V341.025H119.312Z" fill="#62127D"/>
<path fill-rule="evenodd" clip-rule="evenodd" d="M119.312 339.963V338.369H400V339.963H119.312Z" fill="#63127E"/>
<path fill-rule="evenodd" clip-rule="evenodd" d="M119.312 338.901V337.306H400V338.901H119.312Z" fill="#65127F"/>
<path fill-rule="evenodd" clip-rule="evenodd" d="M119.312 337.838V336.244H400V337.838H119.312Z" fill="#671280"/>
<path fill-rule="evenodd" clip-rule="evenodd" d="M119.312 336.775V335.181H400V336.775H119.312Z" fill="#691280"/>
<path fill-rule="evenodd" clip-rule="evenodd" d="M119.312 335.713V334.119H400V335.713H119.312Z" fill="#6B1281"/>
<path fill-rule="evenodd" clip-rule="evenodd" d="M119.312 334.65V333.056H400V334.65H119.312Z" fill="#6D1282"/>
<path fill-rule="evenodd" clip-rule="evenodd" d="M119.312 333.588V331.994H400V333.588H119.312Z" fill="#6F1283"/>
<path fill-rule="evenodd" clip-rule="evenodd" d="M119.312 332.525V330.931H400V332.525H119.312Z" fill="#711283"/>
<path fill-rule="evenodd" clip-rule="evenodd" d="M119.312 331.463V329.869H400V331.463H119.312Z" fill="#731284"/>
<path fill-rule="evenodd" clip-rule="evenodd" d="M119.312 330.4V328.806H400V330.4H119.312Z" fill="#741285"/>
<path fill-rule="evenodd" clip-rule="evenodd" d="M119.312 329.338V327.744H400V329.338H119.312Z" fill="#761285"/>
<path fill-rule="evenodd" clip-rule="evenodd" d="M119.312 328.276V326.681H400V328.276H119.312Z" fill="#781286"/>
<path fill-rule="evenodd" clip-rule="evenodd" d="M119.312 327.213V325.619H400V327.213H119.312Z" fill="#7A1287"/>
<path fill-rule="evenodd" clip-rule="evenodd" d="M119.312 326.15V324.556H400V326.15H119.312Z" fill="#7C1287"/>
<path fill-rule="evenodd" clip-rule="evenodd" d="M119.312 325.088V323.494H400V325.088H119.312Z" fill="#7E1288"/>
<path fill-rule="evenodd" clip-rule="evenodd" d="M119.312 324.025V322.431H400V324.025H119.312Z" fill="#801289"/>
<path fill-rule="evenodd" clip-rule="evenodd" d="M119.312 322.963V321.369H400V322.963H119.312Z" fill="#82128A"/>
<path fill-rule="evenodd" clip-rule="evenodd" d="M119.312 321.9V320.306H400V321.9H119.312Z" fill="#84128A"/>
<path fill-rule="evenodd" clip-rule="evenodd" d="M119.312 320.838V319.244H400V320.838H119.312Z" fill="#86128B"/>
<path fill-rule="evenodd" clip-rule="evenodd" d="M119.312 319.775V318.181H400V319.775H119.312Z" fill="#88128B"/>
<path fill-rule="evenodd" clip-rule="evenodd" d="M119.312 318.713V317.119H400V318.713H119.312Z" fill="#89128C"/>
<path fill-rule="evenodd" clip-rule="evenodd" d="M119.312 317.65V316.056H400V317.65H119.312Z" fill="#8B128D"/>
<path fill-rule="evenodd" clip-rule="evenodd" d="M119.312 316.588V314.994H400V316.588H119.312Z" fill="#8D128D"/>
<path fill-rule="evenodd" clip-rule="evenodd" d="M119.312 315.525V313.931H400V315.525H119.312Z" fill="#8F128E"/>
<path fill-rule="evenodd" clip-rule="evenodd" d="M119.312 314.463V312.869H400V314.463H119.312Z" fill="#91128F"/>
<path fill-rule="evenodd" clip-rule="evenodd" d="M119.312 313.4V311.806H400V313.4H119.312Z" fill="#93128F"/>
<path fill-rule="evenodd" clip-rule="evenodd" d="M119.312 312.338V310.744H400V312.338H119.312Z" fill="#941290"/>
<path fill-rule="evenodd" clip-rule="evenodd" d="M119.312 311.275V309.681H400V311.275H119.312Z" fill="#961290"/>
<path fill-rule="evenodd" clip-rule="evenodd" d="M119.312 310.213V308.619H400V310.213H119.312Z" fill="#981291"/>
<path fill-rule="evenodd" clip-rule="evenodd" d="M119.312 309.15V307.556H400V309.15H119.312Z" fill="#9A1291"/>
<path fill-rule="evenodd" clip-rule="evenodd" d="M119.312 308.088V306.494H400V308.088H119.312Z" fill="#9C1292"/>
<path fill-rule="evenodd" clip-rule="evenodd" d="M119.312 307.025V305.431H400V307.025H119.312Z" fill="#9D1293"/>
<path fill-rule="evenodd" clip-rule="evenodd" d="M119.312 305.963V304.369H400V305.963H119.312Z" fill="#9F1293"/>
<path fill-rule="evenodd" clip-rule="evenodd" d="M119.312 304.9V303.306H400V304.9H119.312Z" fill="#A11294"/>
<path fill-rule="evenodd" clip-rule="evenodd" d="M119.312 303.838V302.244H400V303.838H119.312Z" fill="#A21294"/>
<path fill-rule="evenodd" clip-rule="evenodd" d="M119.312 302.775V301.181H400V302.775H119.312Z" fill="#A41294"/>
<path fill-rule="evenodd" clip-rule="evenodd" d="M119.312 301.713V300.119H400V301.713H119.312Z" fill="#A61295"/>
<path fill-rule="evenodd" clip-rule="evenodd" d="M119.312 300.65V299.056H400V300.65H119.312Z" fill="#A71295"/>
<path fill-rule="evenodd" clip-rule="evenodd" d="M119.312 299.588V297.994H400V299.588H119.312Z" fill="#A91296"/>
<path fill-rule="evenodd" clip-rule="evenodd" d="M119.312 298.525V296.931H400V298.525H119.312Z" fill="#AB1296"/>
<path fill-rule="evenodd" clip-rule="evenodd" d="M119.312 297.463V295.869H400V297.463H119.312Z" fill="#AC1297"/>
<path fill-rule="evenodd" clip-rule="evenodd" d="M119.312 296.4V294.806H400V296.4H119.312Z" fill="#AE1297"/>
<path fill-rule="evenodd" clip-rule="evenodd" d="M119.312 295.338V293.744H400V295.338H119.312Z" fill="#AF1297"/>
<path fill-rule="evenodd" clip-rule="evenodd" d="M119.312 294.275V292.681H400V294.275H119.312Z" fill="#B11298"/>
<path fill-rule="evenodd" clip-rule="evenodd" d="M119.312 293.213V291.619H400V293.213H119.312Z" fill="#B21298"/>
<path fill-rule="evenodd" clip-rule="evenodd" d="M119.312 292.15V290.556H400V292.15H119.312Z" fill="#B31298"/>
<path fill-rule="evenodd" clip-rule="evenodd" d="M119.312 291.088V289.494H400V291.088H119.312Z" fill="#B51298"/>
<path fill-rule="evenodd" clip-rule="evenodd" d="M119.312 290.025V288.431H400V290.025H119.312Z" fill="#B61299"/>
<path fill-rule="evenodd" clip-rule="evenodd" d="M119.312 288.963V287.369H400V288.963H119.312Z" fill="#B81299"/>
<path fill-rule="evenodd" clip-rule="evenodd" d="M119.312 287.9V286.306H400V287.9H119.312Z" fill="#B91299"/>
<path fill-rule="evenodd" clip-rule="evenodd" d="M119.312 286.838V285.244H400V286.838H119.312Z" fill="#BA1299"/>
<path fill-rule="evenodd" clip-rule="evenodd" d="M119.312 285.775V284.181H400V285.775H119.312Z" fill="#BB129A"/>
<path fill-rule="evenodd" clip-rule="evenodd" d="M119.312 284.713V283.119H400V284.713H119.312Z" fill="#BC129A"/>
<path fill-rule="evenodd" clip-rule="evenodd" d="M119.312 283.65V282.056H400V283.65H119.312Z" fill="#BE129A"/>
<path fill-rule="evenodd" clip-rule="evenodd" d="M119.312 282.588V280.994H400V282.588H119.312Z" fill="#BF129A"/>
<path fill-rule="evenodd" clip-rule="evenodd" d="M119.312 281.525V279.931H400V281.525H119.312Z" fill="#C0129A"/>
<path fill-rule="evenodd" clip-rule="evenodd" d="M119.312 280.463V278.869H400V280.463H119.312Z" fill="#C1129A"/>
<path fill-rule="evenodd" clip-rule="evenodd" d="M119.312 279.4V277.806H400V279.4H119.312Z" fill="#C2129A"/>
<path fill-rule="evenodd" clip-rule="evenodd" d="M119.312 278.338V276.744H400V278.338H119.312Z" fill="#C3129A"/>
<path fill-rule="evenodd" clip-rule="evenodd" d="M119.312 277.275V275.681H400V277.275H119.312Z" fill="#C5129A"/>
<path fill-rule="evenodd" clip-rule="evenodd" d="M119.312 276.213V274.619H400V276.213H119.312Z" fill="#C6129A"/>
<path fill-rule="evenodd" clip-rule="evenodd" d="M119.312 275.15V273.556H400V275.15H119.312Z" fill="#C8129A"/>
<path fill-rule="evenodd" clip-rule="evenodd" d="M119.312 274.088V272.494H400V274.088H119.312Z" fill="#C9129A"/>
<path fill-rule="evenodd" clip-rule="evenodd" d="M119.312 273.025V271.431H400V273.025H119.312Z" fill="#CA1299"/>
<path fill-rule="evenodd" clip-rule="evenodd" d="M119.312 271.963V270.369H400V271.963H119.312Z" fill="#CC1299"/>
<path fill-rule="evenodd" clip-rule="evenodd" d="M119.312 270.9V269.306H400V270.9H119.312Z" fill="#CD1399"/>
<path fill-rule="evenodd" clip-rule="evenodd" d="M119.312 269.838V268.244H400V269.838H119.312Z" fill="#CF1398"/>
<path fill-rule="evenodd" clip-rule="evenodd" d="M119.312 268.775V267.181H400V268.775H119.312Z" fill="#D01398"/>
<path fill-rule="evenodd" clip-rule="evenodd" d="M119.312 267.713V266.119H400V267.713H119.312Z" fill="#D11398"/>
<path fill-rule="evenodd" clip-rule="evenodd" d="M119.312 266.65V265.056H400V266.65H119.312Z" fill="#D31397"/>
<path fill-rule="evenodd" clip-rule="evenodd" d="M119.312 265.588V263.994H400V265.588H119.312Z" fill="#D41497"/>
<path fill-rule="evenodd" clip-rule="evenodd" d="M119.312 264.525V262.931H400V264.525H119.312Z" fill="#D51496"/>
<path fill-rule="evenodd" clip-rule="evenodd" d="M119.312 263.463V261.869H400V263.463H119.312Z" fill="#D71496"/>
<path fill-rule="evenodd" clip-rule="evenodd" d="M119.312 262.4V260.806H400V262.4H119.312Z" fill="#D81595"/>
<path fill-rule="evenodd" clip-rule="evenodd" d="M119.312 261.338V259.744H400V261.338H119.312Z" fill="#D91595"/>
<path fill-rule="evenodd" clip-rule="evenodd" d="M119.312 260.275V258.681H400V260.275H119.312Z" fill="#DA1594"/>
<path fill-rule="evenodd" clip-rule="evenodd" d="M119.312 259.213V257.619H400V259.213H119.312Z" fill="#DB1693"/>
<path fill-rule="evenodd" clip-rule="evenodd" d="M119.312 258.15V256.556H400V258.15H119.312Z" fill="#DD1693"/>
<path fill-rule="evenodd" clip-rule="evenodd" d="M119.312 257.088V255.494H400V257.088H119.312Z" fill="#DE1692"/>
<path fill-rule="evenodd" clip-rule="evenodd" d="M119.312 256.025V254.431H400V256.025H119.312Z" fill="#DF1791"/>
<path fill-rule="evenodd" clip-rule="evenodd" d="M119.312 254.963V253.369H400V254.963H119.312Z" fill="#E01791"/>
<path fill-rule="evenodd" clip-rule="evenodd" d="M119.312 253.9V252.306H400V253.9H119.312Z" fill="#E11790"/>
<path fill-rule="evenodd" clip-rule="evenodd" d="M119.312 252.838V251.244H400V252.838H119.312Z" fill="#E2188F"/>
<path fill-rule="evenodd" clip-rule="evenodd" d="M119.312 251.775V250.181H400V251.775H119.312Z" fill="#E3188E"/>
<path fill-rule="evenodd" clip-rule="evenodd" d="M119.312 250.713V249.119H400V250.713H119.312Z" fill="#E4198D"/>
<path fill-rule="evenodd" clip-rule="evenodd" d="M119.312 249.65V248.056H400V249.65H119.312Z" fill="#E5198D"/>
<path fill-rule="evenodd" clip-rule="evenodd" d="M119.312 248.588V246.994H400V248.588H119.312Z" fill="#E61A8C"/>
<path fill-rule="evenodd" clip-rule="evenodd" d="M119.312 247.525V245.931H400V247.525H119.312Z" fill="#E71A8B"/>
<path fill-rule="evenodd" clip-rule="evenodd" d="M119.312 246.463V244.869H400V246.463H119.312Z" fill="#E81B8A"/>
<path fill-rule="evenodd" clip-rule="evenodd" d="M119.312 245.4V243.806H400V245.4H119.312Z" fill="#E91B89"/>
<path fill-rule="evenodd" clip-rule="evenodd" d="M119.312 244.338V242.744H400V244.338H119.312Z" fill="#EA1C88"/>
<path fill-rule="evenodd" clip-rule="evenodd" d="M119.312 243.275V241.681H400V243.275H119.312Z" fill="#EB1D87"/>
<path fill-rule="evenodd" clip-rule="evenodd" d="M119.312 242.213V240.619H400V242.213H119.312Z" fill="#EC1D86"/>
<path fill-rule="evenodd" clip-rule="evenodd" d="M119.312 241.15V239.556H400V241.15H119.312Z" fill="#ED1E85"/>
<path fill-rule="evenodd" clip-rule="evenodd" d="M119.312 240.088V238.494H400V240.088H119.312Z" fill="#ED1E84"/>
<path fill-rule="evenodd" clip-rule="evenodd" d="M119.312 239.025V237.431H400V239.025H119.312Z" fill="#EE1F83"/>
<path fill-rule="evenodd" clip-rule="evenodd" d="M119.312 237.962V236.369H400V237.962H119.312Z" fill="#EF2082"/>
<path fill-rule="evenodd" clip-rule="evenodd" d="M119.312 236.9V235.306H400V236.9H119.312Z" fill="#F02081"/>
<path fill-rule="evenodd" clip-rule="evenodd" d="M119.312 235.837V234.244H400V235.837H119.312Z" fill="#F12180"/>
<path fill-rule="evenodd" clip-rule="evenodd" d="M119.312 234.775V233.181H400V234.775H119.312Z" fill="#F1217F"/>
<path fill-rule="evenodd" clip-rule="evenodd" d="M119.312 233.712V232.119H400V233.712H119.312Z" fill="#F2227E"/>
<path fill-rule="evenodd" clip-rule="evenodd" d="M119.312 232.65V231.056H400V232.65H119.312Z" fill="#F3237D"/>
<path fill-rule="evenodd" clip-rule="evenodd" d="M119.312 231.587V229.994H400V231.587H119.312Z" fill="#F3237C"/>
<path fill-rule="evenodd" clip-rule="evenodd" d="M119.312 230.525V228.931H400V230.525H119.312Z" fill="#F4247B"/>
<path fill-rule="evenodd" clip-rule="evenodd" d="M119.312 229.462V227.869H400V229.462H119.312Z" fill="#F42579"/>
<path fill-rule="evenodd" clip-rule="evenodd" d="M119.312 228.4V226.806H400V228.4H119.312Z" fill="#F52678"/>
<path fill-rule="evenodd" clip-rule="evenodd" d="M119.312 227.337V225.744H400V227.337H119.312Z" fill="#F62677"/>
<path fill-rule="evenodd" clip-rule="evenodd" d="M119.312 226.275V224.681H400V226.275H119.312Z" fill="#F62776"/>
<path fill-rule="evenodd" clip-rule="evenodd" d="M119.312 225.212V223.619H400V225.212H119.312Z" fill="#F72875"/>
<path fill-rule="evenodd" clip-rule="evenodd" d="M119.312 224.15V222.556H400V224.15H119.312Z" fill="#F72874"/>
<path fill-rule="evenodd" clip-rule="evenodd" d="M119.312 223.087V221.494H400V223.087H119.312Z" fill="#F82973"/>
<path fill-rule="evenodd" clip-rule="evenodd" d="M119.312 222.025V220.431H400V222.025H119.312Z" fill="#F82A71"/>
<path fill-rule="evenodd" clip-rule="evenodd" d="M119.312 220.962V219.369H400V220.962H119.312Z" fill="#F92B70"/>
<path fill-rule="evenodd" clip-rule="evenodd" d="M119.312 219.9V218.306H400V219.9H119.312Z" fill="#F92B6F"/>
<path fill-rule="evenodd" clip-rule="evenodd" d="M119.312 218.837V217.244H400V218.837H119.312Z" fill="#F92C6E"/>
<path fill-rule="evenodd" clip-rule="evenodd" d="M119.312 217.775V216.181H400V217.775H119.312Z" fill="#FA2D6D"/>
<path fill-rule="evenodd" clip-rule="evenodd" d="M119.312 216.712V215.119H400V216.712H119.312Z" fill="#FA2E6C"/>
<path fill-rule="evenodd" clip-rule="evenodd" d="M119.312 215.65V214.056H400V215.65H119.312Z" fill="#FA2F6B"/>
<path fill-rule="evenodd" clip-rule="evenodd" d="M119.312 214.587V212.994H400V214.587H119.312Z" fill="#FB2F6A"/>
<path fill-rule="evenodd" clip-rule="evenodd" d="M119.312 213.525V211.931H400V213.525H119.312Z" fill="#FB3068"/>
<path fill-rule="evenodd" clip-rule="evenodd" d="M119.312 212.462V210.869H400V212.462H119.312Z" fill="#FB3167"/>
<path fill-rule="evenodd" clip-rule="evenodd" d="M119.312 211.4V209.806H400V211.4H119.312Z" fill="#FB3266"/>
<path fill-rule="evenodd" clip-rule="evenodd" d="M119.312 210.337V208.744H400V210.337H119.312Z" fill="#FB3365"/>
<path fill-rule="evenodd" clip-rule="evenodd" d="M119.312 209.275V207.681H400V209.275H119.312Z" fill="#FC3364"/>
<path fill-rule="evenodd" clip-rule="evenodd" d="M119.312 208.212V206.619H400V208.212H119.312Z" fill="#FC3463"/>
<path fill-rule="evenodd" clip-rule="evenodd" d="M119.312 207.15V205.556H400V207.15H119.312Z" fill="#FC3562"/>
<path fill-rule="evenodd" clip-rule="evenodd" d="M119.312 206.087V204.494H400V206.087H119.312Z" fill="#FC3661"/>
<path fill-rule="evenodd" clip-rule="evenodd" d="M119.312 205.025V203.431H400V205.025H119.312Z" fill="#FC3760"/>
<path fill-rule="evenodd" clip-rule="evenodd" d="M119.312 203.962V202.369H400V203.962H119.312Z" fill="#FC385F"/>
<path fill-rule="evenodd" clip-rule="evenodd" d="M119.312 202.9V201.306H400V202.9H119.312Z" fill="#FC385E"/>
<path fill-rule="evenodd" clip-rule="evenodd" d="M119.312 201.837V200.244H400V201.837H119.312Z" fill="#FC395D"/>
<path fill-rule="evenodd" clip-rule="evenodd" d="M119.312 200.775V199.181H400V200.775H119.312Z" fill="#FC3A5B"/>
<path fill-rule="evenodd" clip-rule="evenodd" d="M119.312 199.712V198.119H400V199.712H119.312Z" fill="#FC3B5A"/>
<path fill-rule="evenodd" clip-rule="evenodd" d="M119.312 198.65V197.056H400V198.65H119.312Z" fill="#FC3C59"/>
<path fill-rule="evenodd" clip-rule="evenodd" d="M119.312 197.587V195.994H400V197.587H119.312Z" fill="#FC3D58"/>
<path fill-rule="evenodd" clip-rule="evenodd" d="M119.312 196.525V194.931H400V196.525H119.312Z" fill="#FC3E57"/>
<path fill-rule="evenodd" clip-rule="evenodd" d="M119.312 195.462V193.869H400V195.462H119.312Z" fill="#FC3F55"/>
<path fill-rule="evenodd" clip-rule="evenodd" d="M119.312 194.4V192.806H400V194.4H119.312Z" fill="#FC4054"/>
<path fill-rule="evenodd" clip-rule="evenodd" d="M119.312 193.337V191.744H400V193.337H119.312Z" fill="#FC4252"/>
<path fill-rule="evenodd" clip-rule="evenodd" d="M119.312 192.275V190.681H400V192.275H119.312Z" fill="#FC4351"/>
<path fill-rule="evenodd" clip-rule="evenodd" d="M119.312 191.212V189.619H400V191.212H119.312Z" fill="#FC4450"/>
<path fill-rule="evenodd" clip-rule="evenodd" d="M119.312 190.15V188.556H400V190.15H119.312Z" fill="#FC454E"/>
<path fill-rule="evenodd" clip-rule="evenodd" d="M119.312 189.087V187.494H400V189.087H119.312Z" fill="#FC474D"/>
<path fill-rule="evenodd" clip-rule="evenodd" d="M119.312 188.025V186.431H400V188.025H119.312Z" fill="#FC484B"/>
<path fill-rule="evenodd" clip-rule="evenodd" d="M119.312 186.962V185.369H400V186.962H119.312Z" fill="#FC494A"/>
<path fill-rule="evenodd" clip-rule="evenodd" d="M119.312 185.9V184.306H400V185.9H119.312Z" fill="#FC4B48"/>
<path fill-rule="evenodd" clip-rule="evenodd" d="M119.312 184.837V183.244H400V184.837H119.312Z" fill="#FC4C47"/>
<path fill-rule="evenodd" clip-rule="evenodd" d="M119.312 183.775V182.181H400V183.775H119.312Z" fill="#FC4E45"/>
<path fill-rule="evenodd" clip-rule="evenodd" d="M119.312 182.712V181.119H400V182.712H119.312Z" fill="#FC4F43"/>
<path fill-rule="evenodd" clip-rule="evenodd" d="M119.312 181.65V180.056H400V181.65H119.312Z" fill="#FC5042"/>
<path fill-rule="evenodd" clip-rule="evenodd" d="M119.312 180.587V178.994H400V180.587H119.312Z" fill="#FC5240"/>
<path fill-rule="evenodd" clip-rule="evenodd" d="M119.312 179.525V177.931H400V179.525H119.312Z" fill="#FC533F"/>
<path fill-rule="evenodd" clip-rule="evenodd" d="M119.312 178.462V176.869H400V178.462H119.312Z" fill="#FC553D"/>
<path fill-rule="evenodd" clip-rule="evenodd" d="M119.312 177.4V175.806H400V177.4H119.312Z" fill="#FC563B"/>
<path fill-rule="evenodd" clip-rule="evenodd" d="M119.312 176.337V174.744H400V176.337H119.312Z" fill="#FC583A"/>
<path fill-rule="evenodd" clip-rule="evenodd" d="M119.312 175.275V173.681H400V175.275H119.312Z" fill="#FC5938"/>
<path fill-rule="evenodd" clip-rule="evenodd" d="M119.312 174.212V172.619H400V174.212H119.312Z" fill="#FC5B36"/>
<path fill-rule="evenodd" clip-rule="evenodd" d="M119.312 173.15V171.556H400V173.15H119.312Z" fill="#FC5C35"/>
<path fill-rule="evenodd" clip-rule="evenodd" d="M119.312 172.087V170.494H400V172.087H119.312Z" fill="#FC5E33"/>
<path fill-rule="evenodd" clip-rule="evenodd" d="M119.312 171.025V169.431H400V171.025H119.312Z" fill="#FC5F31"/>
<path fill-rule="evenodd" clip-rule="evenodd" d="M119.312 169.962V168.369H400V169.962H119.312Z" fill="#FC6130"/>
<path fill-rule="evenodd" clip-rule="evenodd" d="M119.312 168.9V167.306H400V168.9H119.312Z" fill="#FC622E"/>
<path fill-rule="evenodd" clip-rule="evenodd" d="M119.312 167.837V166.244H400V167.837H119.312Z" fill="#FC642C"/>
<path fill-rule="evenodd" clip-rule="evenodd" d="M119.312 166.775V165.181H400V166.775H119.312Z" fill="#FC652B"/>
<path fill-rule="evenodd" clip-rule="evenodd" d="M119.312 165.712V164.119H400V165.712H119.312Z" fill="#FC6729"/>
<path fill-rule="evenodd" clip-rule="evenodd" d="M119.312 164.65V163.056H400V164.65H119.312Z" fill="#FC6828"/>
<path fill-rule="evenodd" clip-rule="evenodd" d="M119.312 163.587V161.994H400V163.587H119.312Z" fill="#FC6A26"/>
<path fill-rule="evenodd" clip-rule="evenodd" d="M119.312 162.525V160.931H400V162.525H119.312Z" fill="#FC6B25"/>
<path fill-rule="evenodd" clip-rule="evenodd" d="M119.312 161.462V159.869H400V161.462H119.312Z" fill="#FC6D23"/>
<path fill-rule="evenodd" clip-rule="evenodd" d="M119.312 160.4V158.806H400V160.4H119.312Z" fill="#FC6E21"/>
<path fill-rule="evenodd" clip-rule="evenodd" d="M119.312 159.337V157.744H400V159.337H119.312Z" fill="#FC7020"/>
<path fill-rule="evenodd" clip-rule="evenodd" d="M119.312 158.275V156.681H400V158.275H119.312Z" fill="#FC711F"/>
<path fill-rule="evenodd" clip-rule="evenodd" d="M119.312 157.212V155.619H400V157.212H119.312Z" fill="#FC721D"/>
<path fill-rule="evenodd" clip-rule="evenodd" d="M119.312 156.15V154.556H400V156.15H119.312Z" fill="#FC741C"/>
<path fill-rule="evenodd" clip-rule="evenodd" d="M119.312 155.087V153.494H400V155.087H119.312Z" fill="#FC751A"/>
<path fill-rule="evenodd" clip-rule="evenodd" d="M119.312 154.025V152.431H400V154.025H119.312Z" fill="#FC7619"/>
<path fill-rule="evenodd" clip-rule="evenodd" d="M119.312 152.962V151.369H400V152.962H119.312Z" fill="#FC7718"/>
<path fill-rule="evenodd" clip-rule="evenodd" d="M119.312 151.9V150.306H400V151.9H119.312Z" fill="#FC7916"/>
<path fill-rule="evenodd" clip-rule="evenodd" d="M119.312 150.837V149.244H400V150.837H119.312Z" fill="#FC7A15"/>
<path fill-rule="evenodd" clip-rule="evenodd" d="M119.312 149.775V148.181H400V149.775H119.312Z" fill="#FC7B14"/>
<path fill-rule="evenodd" clip-rule="evenodd" d="M119.312 148.712V147.119H400V148.712H119.312Z" fill="#FC7C13"/>
<path fill-rule="evenodd" clip-rule="evenodd" d="M119.312 147.65V146.056H400V147.65H119.312Z" fill="#FC7D12"/>
<path fill-rule="evenodd" clip-rule="evenodd" d="M119.312 146.587V144.994H400V146.587H119.312Z" fill="#FC7E10"/>
<path fill-rule="evenodd" clip-rule="evenodd" d="M119.312 145.525V143.931H400V145.525H119.312Z" fill="#FC7F0F"/>
<path fill-rule="evenodd" clip-rule="evenodd" d="M119.312 144.462V142.869H400V144.462H119.312Z" fill="#FC800E"/>
<path fill-rule="evenodd" clip-rule="evenodd" d="M119.312 143.4V141.806H400V143.4H119.312Z" fill="#FC810D"/>
<path fill-rule="evenodd" clip-rule="evenodd" d="M119.312 142.337V140.744H400V142.337H119.312Z" fill="#FC820D"/>
<path fill-rule="evenodd" clip-rule="evenodd" d="M119.312 141.275V139.681H400V141.275H119.312Z" fill="#FC830C"/>
<path fill-rule="evenodd" clip-rule="evenodd" d="M119.312 140.212V138.619H400V140.212H119.312Z" fill="#FC830B"/>
<path fill-rule="evenodd" clip-rule="evenodd" d="M119.312 139.15V137.556H400V139.15H119.312Z" fill="#FC840A"/>
<path fill-rule="evenodd" clip-rule="evenodd" d="M119.312 138.087V136.494H400V138.087H119.312Z" fill="#FC8509"/>
<path fill-rule="evenodd" clip-rule="evenodd" d="M119.312 137.024V135.431H400V137.024H119.312Z" fill="#FC8509"/>
<path fill-rule="evenodd" clip-rule="evenodd" d="M119.312 135.962V134.369H400V135.962H119.312Z" fill="#FC8608"/>
<path fill-rule="evenodd" clip-rule="evenodd" d="M119.312 134.9V133.306H400V134.9H119.312Z" fill="#FC8608"/>
<path fill-rule="evenodd" clip-rule="evenodd" d="M119.312 133.837V132.243H400V133.837H119.312Z" fill="#FC8707"/>
<path fill-rule="evenodd" clip-rule="evenodd" d="M119.312 132.775V131.181H400V132.775H119.312Z" fill="#FC8707"/>
<path fill-rule="evenodd" clip-rule="evenodd" d="M119.312 131.712V130.119H400V131.712H119.312Z" fill="#FC8707"/>
<path fill-rule="evenodd" clip-rule="evenodd" d="M119.312 130.65V129.056H400V130.65H119.312Z" fill="#FC8806"/>
<path fill-rule="evenodd" clip-rule="evenodd" d="M119.312 129.587V127.994H400V129.587H119.312Z" fill="#FC8806"/>
<path fill-rule="evenodd" clip-rule="evenodd" d="M119.312 128.525V126.931H400V128.525H119.312Z" fill="#FC8806"/>
<path fill-rule="evenodd" clip-rule="evenodd" d="M119.312 127.462V79.9995H400V127.462H119.312Z" fill="#FC8806"/>
</g>
</svg>
